<mxfile host="app.diagrams.net" modified="2021-10-28T06:35:58.502Z" agent="5.0 (Windows NT 10.0; Win64; x64) AppleWebKit/537.36 (KHTML, like Gecko) Chrome/95.0.4638.54 Safari/537.36" etag="6O7A-vcE3x6UO8OPcbJd" version="15.5.9" type="gitlab">
  <diagram name="Page-1" id="03018318-947c-dd8e-b7a3-06fadd420f32">
    <mxGraphModel dx="1422" dy="851" grid="1" gridSize="10" guides="1" tooltips="1" connect="1" arrows="1" fold="1" page="1" pageScale="1" pageWidth="1100" pageHeight="850" background="none" math="0" shadow="0">
      <root>
        <mxCell id="0" />
        <mxCell id="1" parent="0" />
        <mxCell id="677b7b8949515195-1" value="" style="whiteSpace=wrap;html=1;rounded=0;shadow=0;labelBackgroundColor=none;strokeColor=#000000;strokeWidth=1;fillColor=none;fontFamily=Verdana;fontSize=12;fontColor=#000000;align=center;comic=1;" parent="1" vertex="1">
          <mxGeometry x="20" y="20" width="1060" height="820" as="geometry" />
        </mxCell>
        <mxCell id="677b7b8949515195-2" value="LOGO" style="whiteSpace=wrap;html=1;rounded=0;shadow=0;labelBackgroundColor=none;strokeWidth=1;fontFamily=Verdana;fontSize=28;align=center;comic=1;" parent="1" vertex="1">
          <mxGeometry x="40" y="60" width="190" height="50" as="geometry" />
        </mxCell>
        <mxCell id="677b7b8949515195-8" value="&lt;font style=&quot;font-size: 16px&quot;&gt;Image&lt;/font&gt;" style="whiteSpace=wrap;html=1;rounded=0;shadow=0;labelBackgroundColor=none;strokeWidth=1;fillColor=none;fontFamily=Verdana;fontSize=12;align=center;comic=1;" parent="1" vertex="1">
          <mxGeometry x="60" y="180" width="240" height="550" as="geometry" />
        </mxCell>
        <mxCell id="677b7b8949515195-9" value="" style="line;strokeWidth=1;html=1;rounded=0;shadow=0;labelBackgroundColor=none;fillColor=none;fontFamily=Verdana;fontSize=14;fontColor=#000000;align=center;comic=1;" parent="1" vertex="1">
          <mxGeometry x="20" y="140" width="1060" height="10" as="geometry" />
        </mxCell>
        <mxCell id="677b7b8949515195-10" value="" style="whiteSpace=wrap;html=1;rounded=0;shadow=0;labelBackgroundColor=none;strokeWidth=1;fillColor=none;fontFamily=Verdana;fontSize=12;align=center;comic=1;" parent="1" vertex="1">
          <mxGeometry x="720" y="50" width="340" height="60" as="geometry" />
        </mxCell>
        <mxCell id="677b7b8949515195-11" value="About" style="text;html=1;points=[];align=center;verticalAlign=top;spacingTop=-4;fontSize=18;fontFamily=Verdana" parent="1" vertex="1">
          <mxGeometry x="790" y="70" width="60" height="30" as="geometry" />
        </mxCell>
        <mxCell id="677b7b8949515195-25" value="" style="whiteSpace=wrap;html=1;rounded=0;shadow=0;labelBackgroundColor=none;strokeWidth=1;fillColor=none;fontFamily=Verdana;fontSize=12;align=center;comic=1;" parent="1" vertex="1">
          <mxGeometry x="340" y="180" width="440" height="550" as="geometry" />
        </mxCell>
        <mxCell id="jlgpzbXPaKx-CtilnDtw-2" value="Title" style="text;html=1;strokeColor=none;fillColor=none;align=center;verticalAlign=middle;whiteSpace=wrap;rounded=0;fontSize=48;" vertex="1" parent="1">
          <mxGeometry x="490" y="60" width="140" height="50" as="geometry" />
        </mxCell>
        <mxCell id="jlgpzbXPaKx-CtilnDtw-3" value="Login" style="text;html=1;points=[];align=center;verticalAlign=top;spacingTop=-4;fontSize=18;fontFamily=Verdana" vertex="1" parent="1">
          <mxGeometry x="940" y="70" width="60" height="30" as="geometry" />
        </mxCell>
        <mxCell id="jlgpzbXPaKx-CtilnDtw-4" value="" style="endArrow=none;html=1;rounded=0;fontSize=18;" edge="1" parent="1" target="677b7b8949515195-1">
          <mxGeometry width="50" height="50" relative="1" as="geometry">
            <mxPoint x="20" y="760" as="sourcePoint" />
            <mxPoint x="70" y="730" as="targetPoint" />
            <Array as="points">
              <mxPoint x="560" y="760" />
              <mxPoint x="1080" y="760" />
            </Array>
          </mxGeometry>
        </mxCell>
        <mxCell id="jlgpzbXPaKx-CtilnDtw-7" value="&lt;font style=&quot;font-size: 18px&quot;&gt;Copyright&amp;nbsp;&lt;span style=&quot;color: rgb(32 , 33 , 36) ; font-family: &amp;#34;google sans&amp;#34; , &amp;#34;arial&amp;#34; , sans-serif ; text-align: left ; background-color: rgb(255 , 255 , 255)&quot;&gt;Â© 2021 2b03.2012085.EthanTan@gmail.com&lt;/span&gt;&lt;/font&gt;" style="text;html=1;strokeColor=none;fillColor=none;align=center;verticalAlign=middle;whiteSpace=wrap;rounded=0;fontSize=18;" vertex="1" parent="1">
          <mxGeometry x="400" y="770" width="300" height="60" as="geometry" />
        </mxCell>
        <mxCell id="jlgpzbXPaKx-CtilnDtw-9" value="Username" style="text;html=1;strokeColor=none;fillColor=none;align=center;verticalAlign=middle;whiteSpace=wrap;rounded=0;fontSize=18;" vertex="1" parent="1">
          <mxGeometry x="390" y="230" width="110" height="30" as="geometry" />
        </mxCell>
        <mxCell id="jlgpzbXPaKx-CtilnDtw-10" value="&lt;font style=&quot;font-size: 16px&quot;&gt;Image&lt;/font&gt;" style="whiteSpace=wrap;html=1;rounded=0;shadow=0;labelBackgroundColor=none;strokeWidth=1;fillColor=none;fontFamily=Verdana;fontSize=12;align=center;comic=1;" vertex="1" parent="1">
          <mxGeometry x="820" y="180" width="240" height="550" as="geometry" />
        </mxCell>
        <mxCell id="jlgpzbXPaKx-CtilnDtw-11" value="Login" style="strokeWidth=1;shadow=0;dashed=0;align=center;html=1;shape=mxgraph.mockup.buttons.button;strokeColor=#006EAF;mainText=;buttonStyle=round;fontSize=17;fontStyle=1;fillColor=#1ba1e2;whiteSpace=wrap;fontColor=#ffffff;" vertex="1" parent="1">
          <mxGeometry x="390" y="330" width="360" height="50" as="geometry" />
        </mxCell>
        <mxCell id="jlgpzbXPaKx-CtilnDtw-12" value="E.g. John Doe" style="rounded=1;whiteSpace=wrap;html=1;fontSize=16;align=left;spacingLeft=5;fontColor=#8A8A8A;" vertex="1" parent="1">
          <mxGeometry x="520" y="230" width="230" height="30" as="geometry" />
        </mxCell>
        <mxCell id="jlgpzbXPaKx-CtilnDtw-14" value="Password" style="text;html=1;strokeColor=none;fillColor=none;align=center;verticalAlign=middle;whiteSpace=wrap;rounded=0;fontSize=18;" vertex="1" parent="1">
          <mxGeometry x="390" y="280" width="110" height="30" as="geometry" />
        </mxCell>
        <mxCell id="jlgpzbXPaKx-CtilnDtw-15" value="E.g. John Doe" style="rounded=1;whiteSpace=wrap;html=1;fontSize=16;align=left;spacingLeft=5;fontColor=#8A8A8A;" vertex="1" parent="1">
          <mxGeometry x="520" y="280" width="230" height="30" as="geometry" />
        </mxCell>
        <mxCell id="jlgpzbXPaKx-CtilnDtw-17" style="edgeStyle=orthogonalEdgeStyle;rounded=0;orthogonalLoop=1;jettySize=auto;html=1;exitX=0.5;exitY=1;exitDx=0;exitDy=0;fontSize=16;fontColor=#8A8A8A;" edge="1" parent="1" source="jlgpzbXPaKx-CtilnDtw-15" target="jlgpzbXPaKx-CtilnDtw-15">
          <mxGeometry relative="1" as="geometry" />
        </mxCell>
      </root>
    </mxGraphModel>
  </diagram>
</mxfile>
